<svg width="80" height="79" viewBox="0 0 80 79" fill="none" xmlns="http://www.w3.org/2000/svg"><path d="M21.15 8.28a4.14 4.14 0 1 0 0-8.28 4.14 4.14 0 0 0 0 8.28zm27.01 0a4.14 4.14 0 1 0 0-8.28 4.14 4.14 0 0 0 0 8.28zm27.01 0a4.14 4.14 0 1 0 0-8.28 4.14 4.14 0 0 0 0 8.28zM21.15 31.72a4.14 4.14 0 1 0 0-8.28 4.14 4.14 0 0 0 0 8.28zm27.01 0a4.14 4.14 0 1 0 0-8.28 4.14 4.14 0 0 0 0 8.28zm27.01 0a4.14 4.14 0 1 0 0-8.28 4.14 4.14 0 0 0 0 8.28zM21.15 55.17a4.14 4.14 0 1 0 0-8.28 4.14 4.14 0 0 0 0 8.28zm27.01 0a4.14 4.14 0 1 0 0-8.28 4.14 4.14 0 0 0 0 8.28zm27.01 0a4.14 4.14 0 1 0 0-8.28 4.14 4.14 0 0 0 0 8.28zM21.15 78.61a4.14 4.14 0 1 0 0-8.28 4.14 4.14 0 0 0 0 8.28zm27.01 0a4.14 4.14 0 1 0 0-8.28 4.14 4.14 0 0 0 0 8.28zm27.01 0a4.14 4.14 0 1 0 0-8.28 4.14 4.14 0 0 0 0 8.28z" fill="#C82F35"/></svg>