<svg width="45" height="79" viewBox="0 0 45 79" fill="none" xmlns="http://www.w3.org/2000/svg"><path d="M13.16 8.28a4.14 4.14 0 1 0 0-8.28 4.14 4.14 0 0 0 0 8.28zm27.01 0a4.14 4.14 0 1 0 0-8.28 4.14 4.14 0 0 0 0 8.28zM13.16 31.72a4.14 4.14 0 1 0 0-8.28 4.14 4.14 0 0 0 0 8.28zm27.01 0a4.14 4.14 0 1 0 0-8.28 4.14 4.14 0 0 0 0 8.28zM13.16 55.17a4.14 4.14 0 1 0 0-8.28 4.14 4.14 0 0 0 0 8.28zm27.01 0a4.14 4.14 0 1 0 0-8.28 4.14 4.14 0 0 0 0 8.28zM13.16 78.61a4.14 4.14 0 1 0 0-8.28 4.14 4.14 0 0 0 0 8.28zm27.01 0a4.14 4.14 0 1 0 0-8.28 4.14 4.14 0 0 0 0 8.28z" fill="#fff"/></svg>