<svg width="60" height="167" viewBox="0 0 60 167" fill="none" xmlns="http://www.w3.org/2000/svg"><path d="M8.85 3.772A1.887 1.887 0 1 0 8.85 0a1.887 1.887 0 1 0 0 3.772zm0 10.678a1.887 1.887 0 1 0-1.89-1.886c0 1.042.846 1.886 1.89 1.886zm0 10.683a1.887 1.887 0 1 0-1.89-1.886c0 1.041.846 1.886 1.89 1.886zm0 10.678a1.887 1.887 0 1 0-1.89-1.886c0 1.042.846 1.886 1.89 1.886zm12.3-32.039a1.887 1.887 0 1 0-1.888-1.886c0 1.042.846 1.886 1.889 1.886zm12.32 0a1.887 1.887 0 1 0 0-3.772 1.887 1.887 0 0 0 0 3.772zm12.321 0a1.887 1.887 0 1 0 0-3.772 1.887 1.887 0 0 0 0 3.772zm12.32 0a1.887 1.887 0 1 0 0-3.772 1.887 1.887 0 0 0 0 3.772zM21.15 14.45a1.887 1.887 0 1 0-1.888-1.886c0 1.042.846 1.886 1.889 1.886zm12.32 0a1.887 1.887 0 1 0-1.887-1.886c0 1.042.845 1.886 1.888 1.886zm12.321 0a1.887 1.887 0 1 0-1.888-1.886c0 1.042.845 1.886 1.888 1.886zm12.32 0a1.887 1.887 0 1 0-1.888-1.886c0 1.042.846 1.886 1.889 1.886zM21.15 25.133a1.887 1.887 0 0 0 0-3.772 1.887 1.887 0 1 0 0 3.772zm12.32 0a1.887 1.887 0 1 0-1.887-1.886c0 1.041.845 1.886 1.888 1.886zm12.321 0a1.887 1.887 0 1 0-1.888-1.886c0 1.041.845 1.886 1.888 1.886zm12.32 0a1.887 1.887 0 1 0-1.888-1.886c0 1.041.846 1.886 1.889 1.886zM21.15 35.811a1.887 1.887 0 1 0-1.888-1.886c0 1.042.846 1.886 1.889 1.886zm12.32 0a1.887 1.887 0 1 0-1.887-1.886c0 1.042.845 1.886 1.888 1.886zm12.321 0a1.887 1.887 0 1 0-1.888-1.886c0 1.042.845 1.886 1.888 1.886zm12.32 0a1.887 1.887 0 1 0-1.888-1.886c0 1.042.846 1.886 1.889 1.886zM8.85 47.96a1.887 1.887 0 1 0 0-3.771 1.887 1.887 0 1 0 0 3.772zm0 10.68a1.887 1.887 0 1 0-1.89-1.887c0 1.042.846 1.886 1.89 1.886zm0 10.682a1.887 1.887 0 1 0-1.89-1.886c0 1.041.846 1.886 1.89 1.886zM8.85 80a1.887 1.887 0 1 0-1.89-1.886c0 1.042.846 1.886 1.89 1.886zm12.3-32.04a1.887 1.887 0 1 0-1.888-1.885c0 1.041.846 1.886 1.889 1.886zm12.32 0a1.887 1.887 0 1 0 0-3.771 1.887 1.887 0 1 0 0 3.772zm12.321 0a1.887 1.887 0 1 0 0-3.771 1.887 1.887 0 1 0 0 3.772zm12.32 0a1.887 1.887 0 1 0 0-3.771 1.887 1.887 0 1 0 0 3.772zM21.15 58.64a1.887 1.887 0 1 0-1.888-1.887c0 1.042.846 1.886 1.889 1.886zm12.32 0a1.887 1.887 0 1 0-1.887-1.887c0 1.042.845 1.886 1.888 1.886zm12.321 0a1.887 1.887 0 1 0-1.888-1.887c0 1.042.845 1.886 1.888 1.886zm12.32 0a1.887 1.887 0 1 0-1.888-1.887c0 1.042.846 1.886 1.889 1.886zM21.15 69.322a1.887 1.887 0 1 0-1.888-1.886c0 1.041.846 1.886 1.889 1.886zm12.32 0a1.887 1.887 0 1 0-1.887-1.886c0 1.041.845 1.886 1.888 1.886zm12.321 0a1.887 1.887 0 1 0-1.888-1.886c0 1.041.845 1.886 1.888 1.886zm12.32 0a1.887 1.887 0 1 0-1.888-1.886c0 1.041.846 1.886 1.889 1.886zM21.15 80a1.887 1.887 0 1 0-1.888-1.886c0 1.042.846 1.886 1.889 1.886zm12.32 0a1.887 1.887 0 1 0-1.887-1.886c0 1.042.845 1.886 1.888 1.886zm12.321 0a1.887 1.887 0 1 0-1.888-1.886c0 1.042.845 1.886 1.888 1.886zm12.32 0a1.887 1.887 0 1 0-1.888-1.886c0 1.042.846 1.886 1.889 1.886zM8.85 90.772a1.887 1.887 0 1 0-1.89-1.886c0 1.042.846 1.886 1.89 1.886zm0 10.678a1.887 1.887 0 1 0 0-3.772 1.887 1.887 0 0 0 0 3.772zm0 10.683a1.887 1.887 0 1 0 0-3.772 1.887 1.887 0 1 0 0 3.772zm0 10.678a1.887 1.887 0 1 0 0-3.772 1.887 1.887 0 0 0 0 3.772zm12.3-32.039a1.887 1.887 0 1 0-1.888-1.886c0 1.042.846 1.886 1.889 1.886zm12.32 0a1.887 1.887 0 1 0-1.887-1.886c0 1.042.845 1.886 1.888 1.886zm12.321 0a1.887 1.887 0 1 0-1.888-1.886c0 1.042.845 1.886 1.888 1.886zm12.32 0a1.887 1.887 0 1 0-1.888-1.886c0 1.042.846 1.886 1.889 1.886zM21.15 101.45a1.887 1.887 0 1 0 0-3.772 1.887 1.887 0 0 0 0 3.772zm12.32 0a1.887 1.887 0 1 0 0-3.772 1.887 1.887 0 0 0 0 3.772zm12.321 0a1.887 1.887 0 1 0 0-3.772 1.887 1.887 0 0 0 0 3.772zm12.32 0a1.887 1.887 0 1 0 0-3.772 1.887 1.887 0 0 0 0 3.772zM21.15 112.133a1.887 1.887 0 1 0 0-3.772 1.887 1.887 0 1 0 0 3.772zm12.32 0a1.887 1.887 0 1 0 0-3.772 1.887 1.887 0 1 0 0 3.772zm12.321 0a1.887 1.887 0 1 0 0-3.772 1.887 1.887 0 1 0 0 3.772zm12.32 0a1.887 1.887 0 1 0 0-3.772 1.887 1.887 0 1 0 0 3.772zM21.15 122.811a1.887 1.887 0 1 0 0-3.772 1.887 1.887 0 0 0 0 3.772zm12.32 0a1.887 1.887 0 1 0 0-3.772 1.887 1.887 0 0 0 0 3.772zm12.321 0a1.887 1.887 0 1 0 0-3.772 1.887 1.887 0 0 0 0 3.772zm12.32 0a1.887 1.887 0 1 0 0-3.772 1.887 1.887 0 0 0 0 3.772zM8.85 134.961a1.887 1.887 0 0 0 0-3.772 1.887 1.887 0 1 0 0 3.772zm0 10.678a1.887 1.887 0 1 0 0-3.772 1.887 1.887 0 1 0 0 3.772zm0 10.683a1.887 1.887 0 0 0 0-3.772 1.887 1.887 0 1 0 0 3.772zm0 10.678a1.887 1.887 0 1 0 0-3.772 1.887 1.887 0 1 0 0 3.772zm12.3-32.039a1.887 1.887 0 0 0 0-3.772 1.887 1.887 0 1 0 0 3.772zm12.32 0a1.887 1.887 0 0 0 0-3.772 1.887 1.887 0 1 0 0 3.772zm12.321 0a1.887 1.887 0 0 0 0-3.772 1.887 1.887 0 1 0 0 3.772zm12.32 0a1.887 1.887 0 0 0 0-3.772 1.887 1.887 0 1 0 0 3.772zM21.15 145.639a1.887 1.887 0 1 0 0-3.772 1.887 1.887 0 1 0 0 3.772zm12.32 0a1.887 1.887 0 1 0 0-3.772 1.887 1.887 0 1 0 0 3.772zm12.321 0a1.887 1.887 0 1 0 0-3.772 1.887 1.887 0 1 0 0 3.772zm12.32 0a1.887 1.887 0 1 0 0-3.772 1.887 1.887 0 1 0 0 3.772zM21.15 156.322a1.887 1.887 0 0 0 0-3.772 1.887 1.887 0 1 0 0 3.772zm12.32 0a1.887 1.887 0 0 0 0-3.772 1.887 1.887 0 1 0 0 3.772zm12.321 0a1.887 1.887 0 0 0 0-3.772 1.887 1.887 0 1 0 0 3.772zm12.32 0a1.887 1.887 0 0 0 0-3.772 1.887 1.887 0 1 0 0 3.772zM21.15 167a1.887 1.887 0 1 0 0-3.772 1.887 1.887 0 1 0 0 3.772zm12.32 0a1.887 1.887 0 1 0 0-3.772 1.887 1.887 0 1 0 0 3.772zm12.321 0a1.887 1.887 0 1 0 0-3.772 1.887 1.887 0 1 0 0 3.772zm12.32 0a1.887 1.887 0 1 0 0-3.772 1.887 1.887 0 1 0 0 3.772z" fill="#C82F35"/></svg>