<svg width="167" height="90" viewBox="0 0 167 90" fill="none" xmlns="http://www.w3.org/2000/svg"><path d="M163.228 1.888a1.887 1.887 0 1 0 3.772 0 1.887 1.887 0 1 0-3.772 0zm0 12.321a1.887 1.887 0 1 0 3.772 0 1.887 1.887 0 1 0-3.772 0zm0 12.32a1.887 1.887 0 1 0 3.772 0 1.887 1.887 0 1 0-3.772 0zm0 12.321a1.887 1.887 0 1 0 3.772 0 1.887 1.887 0 1 0-3.772 0zM152.55 1.888a1.887 1.887 0 1 0 3.772 0 1.887 1.887 0 0 0-3.772 0zm0 12.321a1.887 1.887 0 1 0 3.772 0 1.887 1.887 0 0 0-3.772 0zm0 12.32a1.887 1.887 0 1 0 3.772 0 1.887 1.887 0 0 0-3.772 0zm0 12.321a1.887 1.887 0 1 0 3.772 0 1.887 1.887 0 0 0-3.772 0zM141.867 1.888a1.887 1.887 0 0 0 3.772 0 1.887 1.887 0 1 0-3.772 0zm0 12.321a1.887 1.887 0 0 0 3.772 0 1.887 1.887 0 1 0-3.772 0zm0 12.32a1.887 1.887 0 0 0 3.772 0 1.887 1.887 0 1 0-3.772 0zm0 12.321a1.887 1.887 0 0 0 3.772 0 1.887 1.887 0 1 0-3.772 0zM131.189 1.888a1.887 1.887 0 1 0 3.772 0 1.887 1.887 0 1 0-3.772 0zm0 12.321a1.887 1.887 0 1 0 3.772 0 1.887 1.887 0 1 0-3.772 0zm0 12.32a1.887 1.887 0 1 0 3.772 0 1.887 1.887 0 1 0-3.772 0zm0 12.321a1.887 1.887 0 1 0 3.772 0 1.887 1.887 0 1 0-3.772 0zm32.039 12.3a1.887 1.887 0 1 0 3.772 0 1.887 1.887 0 1 0-3.772 0zm0 12.32a1.887 1.887 0 1 0 3.772 0 1.887 1.887 0 1 0-3.772 0zm0 12.321a1.887 1.887 0 1 0 3.772 0 1.887 1.887 0 1 0-3.772 0zm0 12.321a1.887 1.887 0 1 0 3.772 0 1.887 1.887 0 1 0-3.772 0zM152.55 51.15a1.887 1.887 0 1 0 3.772 0 1.887 1.887 0 0 0-3.772 0zm0 12.32a1.887 1.887 0 1 0 3.772 0 1.887 1.887 0 0 0-3.772 0zm0 12.321a1.887 1.887 0 1 0 3.772 0 1.887 1.887 0 0 0-3.772 0zm0 12.321a1.887 1.887 0 1 0 3.772 0 1.887 1.887 0 0 0-3.772 0zM141.867 51.15a1.887 1.887 0 0 0 3.772 0 1.887 1.887 0 1 0-3.772 0zm0 12.32a1.887 1.887 0 0 0 3.772 0 1.887 1.887 0 1 0-3.772 0zm0 12.321a1.887 1.887 0 0 0 3.772 0 1.887 1.887 0 1 0-3.772 0zm0 12.321a1.887 1.887 0 0 0 3.772 0 1.887 1.887 0 1 0-3.772 0zM131.189 51.15a1.887 1.887 0 1 0 3.772 0 1.887 1.887 0 1 0-3.772 0zm0 12.32a1.887 1.887 0 1 0 3.772 0 1.887 1.887 0 1 0-3.772 0zm0 12.321a1.887 1.887 0 1 0 3.772 0 1.887 1.887 0 1 0-3.772 0zm0 12.321a1.887 1.887 0 1 0 3.772 0 1.887 1.887 0 1 0-3.772 0zm-12.15-86.224a1.887 1.887 0 1 0 3.772 0 1.887 1.887 0 1 0-3.772 0zm0 12.321a1.887 1.887 0 1 0 3.772 0 1.887 1.887 0 1 0-3.772 0zm0 12.32a1.887 1.887 0 1 0 3.772 0 1.887 1.887 0 1 0-3.772 0zm0 12.321a1.887 1.887 0 1 0 3.772 0 1.887 1.887 0 1 0-3.772 0zM108.361 1.888a1.887 1.887 0 1 0 3.772 0 1.887 1.887 0 0 0-3.772 0zm0 12.321a1.887 1.887 0 1 0 3.772 0 1.887 1.887 0 0 0-3.772 0zm0 12.32a1.887 1.887 0 1 0 3.772 0 1.887 1.887 0 0 0-3.772 0zm0 12.321a1.887 1.887 0 1 0 3.772 0 1.887 1.887 0 0 0-3.772 0zM97.678 1.888a1.887 1.887 0 0 0 3.772 0 1.887 1.887 0 1 0-3.772 0zm0 12.321a1.887 1.887 0 0 0 3.772 0 1.887 1.887 0 1 0-3.772 0zm0 12.32a1.887 1.887 0 0 0 3.772 0 1.887 1.887 0 1 0-3.772 0zm0 12.321a1.887 1.887 0 0 0 3.772 0 1.887 1.887 0 1 0-3.772 0zM87 1.888A1.887 1.887 0 1 0 88.886 0 1.887 1.887 0 0 0 87 1.888zm0 12.321a1.887 1.887 0 1 0 1.886-1.889A1.887 1.887 0 0 0 87 14.21zm0 12.32a1.887 1.887 0 1 0 1.886-1.888A1.887 1.887 0 0 0 87 26.529zm0 12.321a1.887 1.887 0 1 0 1.886-1.89A1.887 1.887 0 0 0 87 38.85zm32.039 12.3a1.887 1.887 0 1 0 3.772 0 1.887 1.887 0 1 0-3.772 0zm0 12.32a1.887 1.887 0 1 0 3.772 0 1.887 1.887 0 1 0-3.772 0zm0 12.321a1.887 1.887 0 1 0 3.772 0 1.887 1.887 0 1 0-3.772 0zm0 12.321a1.887 1.887 0 1 0 3.772 0 1.887 1.887 0 1 0-3.772 0zM108.361 51.15a1.887 1.887 0 1 0 3.772 0 1.887 1.887 0 0 0-3.772 0zm0 12.32a1.887 1.887 0 1 0 3.772 0 1.887 1.887 0 0 0-3.772 0zm0 12.321a1.887 1.887 0 1 0 3.772 0 1.887 1.887 0 0 0-3.772 0zm0 12.321a1.887 1.887 0 1 0 3.772 0 1.887 1.887 0 0 0-3.772 0zM97.678 51.15a1.887 1.887 0 0 0 3.772 0 1.887 1.887 0 1 0-3.772 0zm0 12.32a1.887 1.887 0 0 0 3.772 0 1.887 1.887 0 1 0-3.772 0zm0 12.321a1.887 1.887 0 0 0 3.772 0 1.887 1.887 0 1 0-3.772 0zm0 12.321a1.887 1.887 0 0 0 3.772 0 1.887 1.887 0 1 0-3.772 0zM87 51.15a1.887 1.887 0 1 0 1.886-1.888A1.887 1.887 0 0 0 87 51.151zm0 12.32a1.887 1.887 0 1 0 1.886-1.887A1.887 1.887 0 0 0 87 63.47zm0 12.321a1.887 1.887 0 1 0 1.886-1.888A1.887 1.887 0 0 0 87 75.79zm0 12.321a1.887 1.887 0 1 0 1.886-1.889A1.887 1.887 0 0 0 87 88.112zM76.228 1.888A1.887 1.887 0 1 0 78.114 0a1.887 1.887 0 0 0-1.886 1.888zm0 12.321a1.887 1.887 0 1 0 1.886-1.889 1.887 1.887 0 0 0-1.886 1.889zm0 12.32a1.887 1.887 0 1 0 1.886-1.888 1.887 1.887 0 0 0-1.886 1.888zm0 12.321a1.887 1.887 0 1 0 1.886-1.89 1.887 1.887 0 0 0-1.886 1.89zM65.55 1.888A1.887 1.887 0 1 0 67.436 0a1.887 1.887 0 0 0-1.886 1.888zm0 12.321a1.887 1.887 0 1 0 1.886-1.889 1.887 1.887 0 0 0-1.886 1.889zm0 12.32a1.887 1.887 0 1 0 1.886-1.888 1.887 1.887 0 0 0-1.886 1.888zm0 12.321a1.887 1.887 0 1 0 1.886-1.89 1.887 1.887 0 0 0-1.886 1.89zM54.867 1.888A1.887 1.887 0 1 0 56.753 0a1.887 1.887 0 0 0-1.886 1.888zm0 12.321a1.887 1.887 0 1 0 1.886-1.889 1.887 1.887 0 0 0-1.886 1.889zm0 12.32a1.887 1.887 0 1 0 1.886-1.888 1.887 1.887 0 0 0-1.886 1.888zm0 12.321a1.887 1.887 0 1 0 1.886-1.89 1.887 1.887 0 0 0-1.886 1.89zM44.189 1.888A1.887 1.887 0 1 0 46.075 0a1.887 1.887 0 0 0-1.886 1.888zm0 12.321a1.887 1.887 0 1 0 1.886-1.889 1.887 1.887 0 0 0-1.886 1.889zm0 12.32a1.887 1.887 0 1 0 1.886-1.888 1.887 1.887 0 0 0-1.886 1.888zm0 12.321a1.887 1.887 0 1 0 1.886-1.89 1.887 1.887 0 0 0-1.886 1.89zm32.039 12.3a1.887 1.887 0 1 0 1.886-1.888 1.887 1.887 0 0 0-1.886 1.889zm0 12.32a1.887 1.887 0 1 0 1.886-1.887 1.887 1.887 0 0 0-1.886 1.888zm0 12.321a1.887 1.887 0 1 0 1.886-1.888 1.887 1.887 0 0 0-1.886 1.888zm0 12.321a1.887 1.887 0 1 0 1.886-1.889 1.887 1.887 0 0 0-1.886 1.889zM65.55 51.15a1.887 1.887 0 1 0 1.886-1.888 1.887 1.887 0 0 0-1.886 1.889zm0 12.32a1.887 1.887 0 1 0 1.886-1.887 1.887 1.887 0 0 0-1.886 1.888zm0 12.321a1.887 1.887 0 1 0 1.886-1.888 1.887 1.887 0 0 0-1.886 1.888zm0 12.321a1.887 1.887 0 1 0 1.886-1.889 1.887 1.887 0 0 0-1.886 1.889zM54.867 51.15a1.887 1.887 0 1 0 1.886-1.888 1.887 1.887 0 0 0-1.886 1.889zm0 12.32a1.887 1.887 0 1 0 1.886-1.887 1.887 1.887 0 0 0-1.886 1.888zm0 12.321a1.887 1.887 0 1 0 1.886-1.888 1.887 1.887 0 0 0-1.886 1.888zm0 12.321a1.887 1.887 0 1 0 1.886-1.889 1.887 1.887 0 0 0-1.886 1.889zM44.189 51.15a1.887 1.887 0 1 0 1.886-1.888 1.887 1.887 0 0 0-1.886 1.889zm0 12.32a1.887 1.887 0 1 0 1.886-1.887 1.887 1.887 0 0 0-1.886 1.888zm0 12.321a1.887 1.887 0 1 0 1.886-1.888 1.887 1.887 0 0 0-1.886 1.888zm0 12.321a1.887 1.887 0 1 0 1.886-1.889 1.887 1.887 0 0 0-1.886 1.889zM32.04 1.888a1.887 1.887 0 1 0 3.771 0 1.887 1.887 0 0 0-3.772 0zm0 12.321a1.887 1.887 0 1 0 3.771 0 1.887 1.887 0 0 0-3.772 0zm0 12.32a1.887 1.887 0 1 0 3.771 0 1.887 1.887 0 0 0-3.772 0zm0 12.321a1.887 1.887 0 1 0 3.771 0 1.887 1.887 0 0 0-3.772 0zM21.36 1.888A1.887 1.887 0 1 0 23.248 0a1.887 1.887 0 0 0-1.886 1.888zm0 12.321a1.887 1.887 0 1 0 1.887-1.889 1.887 1.887 0 0 0-1.886 1.889zm0 12.32a1.887 1.887 0 1 0 1.887-1.888 1.887 1.887 0 0 0-1.886 1.888zm0 12.321a1.887 1.887 0 1 0 1.887-1.89 1.887 1.887 0 0 0-1.886 1.89zM10.678 1.888A1.887 1.887 0 1 0 12.564 0a1.887 1.887 0 0 0-1.886 1.888zm0 12.321a1.887 1.887 0 1 0 1.886-1.889 1.887 1.887 0 0 0-1.886 1.889zm0 12.32a1.887 1.887 0 1 0 1.886-1.888 1.887 1.887 0 0 0-1.886 1.888zm0 12.321a1.887 1.887 0 1 0 1.886-1.89 1.887 1.887 0 0 0-1.886 1.89zM0 1.888A1.887 1.887 0 1 0 1.886 0 1.887 1.887 0 0 0 0 1.888zm0 12.321a1.887 1.887 0 1 0 1.886-1.889A1.887 1.887 0 0 0 0 14.21zm0 12.32a1.887 1.887 0 1 0 1.886-1.888A1.887 1.887 0 0 0 0 26.529zM0 38.85a1.887 1.887 0 1 0 1.886-1.89A1.887 1.887 0 0 0 0 38.85zm32.04 12.3a1.887 1.887 0 1 0 3.771 0 1.887 1.887 0 0 0-3.772 0zm0 12.32a1.887 1.887 0 1 0 3.771 0 1.887 1.887 0 0 0-3.772 0zm0 12.321a1.887 1.887 0 1 0 3.771 0 1.887 1.887 0 0 0-3.772 0zm0 12.321a1.887 1.887 0 1 0 3.771 0 1.887 1.887 0 0 0-3.772 0zM21.36 51.15a1.887 1.887 0 1 0 1.887-1.888 1.887 1.887 0 0 0-1.886 1.889zm0 12.32a1.887 1.887 0 1 0 1.887-1.887 1.887 1.887 0 0 0-1.886 1.888zm0 12.321a1.887 1.887 0 1 0 1.887-1.888 1.887 1.887 0 0 0-1.886 1.888zm0 12.321a1.887 1.887 0 1 0 1.887-1.889 1.887 1.887 0 0 0-1.886 1.889zM10.678 51.15a1.887 1.887 0 1 0 1.886-1.888 1.887 1.887 0 0 0-1.886 1.889zm0 12.32a1.887 1.887 0 1 0 1.886-1.887 1.887 1.887 0 0 0-1.886 1.888zm0 12.321a1.887 1.887 0 1 0 1.886-1.888 1.887 1.887 0 0 0-1.886 1.888zm0 12.321a1.887 1.887 0 1 0 1.886-1.889 1.887 1.887 0 0 0-1.886 1.889zM0 51.15a1.887 1.887 0 1 0 1.886-1.888A1.887 1.887 0 0 0 0 51.151zm0 12.32a1.887 1.887 0 1 0 1.886-1.887A1.887 1.887 0 0 0 0 63.47zm0 12.321a1.887 1.887 0 1 0 1.886-1.888A1.887 1.887 0 0 0 0 75.79zm0 12.321a1.887 1.887 0 1 0 1.886-1.889A1.887 1.887 0 0 0 0 88.112z" opacity=".4" fill="#fff"/></svg>