<svg width="90" height="80" viewBox="0 0 90 80" fill="none" xmlns="http://www.w3.org/2000/svg"><path d="M1.888 3.772A1.887 1.887 0 1 0 0 1.886c0 1.042.845 1.886 1.888 1.886zm12.321 0a1.887 1.887 0 1 0-1.889-1.886c0 1.042.846 1.886 1.889 1.886zm12.32 0a1.887 1.887 0 1 0 0-3.772 1.887 1.887 0 0 0 0 3.772zm12.321 0a1.887 1.887 0 1 0 0-3.772 1.887 1.887 0 0 0 0 3.772zM1.888 14.45A1.887 1.887 0 1 0 0 12.564c0 1.042.845 1.886 1.888 1.886zm12.321 0a1.887 1.887 0 1 0-1.889-1.886c0 1.042.846 1.886 1.889 1.886zm12.32 0a1.887 1.887 0 1 0-1.888-1.886c0 1.042.845 1.886 1.888 1.886zm12.321 0a1.887 1.887 0 1 0-1.89-1.886c0 1.042.846 1.886 1.89 1.886zM1.888 25.133a1.887 1.887 0 0 0 0-3.772 1.887 1.887 0 1 0 0 3.772zm12.321 0a1.887 1.887 0 0 0 0-3.772 1.887 1.887 0 1 0 0 3.772zm12.32 0a1.887 1.887 0 1 0-1.888-1.886c0 1.041.845 1.886 1.888 1.886zm12.321 0a1.887 1.887 0 1 0-1.89-1.886c0 1.041.846 1.886 1.89 1.886zM1.888 35.811A1.887 1.887 0 1 0 0 33.925c0 1.042.845 1.886 1.888 1.886zm12.321 0a1.887 1.887 0 1 0-1.889-1.886c0 1.042.846 1.886 1.889 1.886zm12.32 0a1.887 1.887 0 1 0-1.888-1.886c0 1.042.845 1.886 1.888 1.886zm12.321 0a1.887 1.887 0 1 0-1.89-1.886c0 1.042.846 1.886 1.89 1.886zm12.3-32.039a1.887 1.887 0 1 0-1.888-1.886c0 1.042.845 1.886 1.888 1.886zm12.32 0a1.887 1.887 0 1 0 0-3.772 1.887 1.887 0 0 0 0 3.772zm12.32 0a1.887 1.887 0 1 0 0-3.772 1.887 1.887 0 0 0 0 3.772zm12.321 0a1.887 1.887 0 1 0-1.888-1.886c0 1.042.845 1.886 1.888 1.886zM51.15 14.45a1.887 1.887 0 1 0-1.888-1.886c0 1.042.845 1.886 1.888 1.886zm12.32 0a1.887 1.887 0 1 0-1.888-1.886c0 1.042.846 1.886 1.888 1.886zm12.32 0a1.887 1.887 0 1 0-1.888-1.886c0 1.042.846 1.886 1.889 1.886zm12.321 0a1.887 1.887 0 1 0-1.888-1.886c0 1.042.845 1.886 1.888 1.886zM51.15 25.133a1.887 1.887 0 0 0 0-3.772 1.887 1.887 0 1 0 0 3.772zm12.32 0a1.887 1.887 0 1 0-1.888-1.886c0 1.041.846 1.886 1.888 1.886zm12.32 0a1.887 1.887 0 1 0-1.888-1.886c0 1.041.846 1.886 1.889 1.886zm12.321 0a1.887 1.887 0 0 0 0-3.772 1.887 1.887 0 1 0 0 3.772zM51.15 35.811a1.887 1.887 0 1 0-1.888-1.886c0 1.042.845 1.886 1.888 1.886zm12.32 0a1.887 1.887 0 1 0-1.888-1.886c0 1.042.846 1.886 1.888 1.886zm12.32 0a1.887 1.887 0 1 0-1.888-1.886c0 1.042.846 1.886 1.889 1.886zm12.321 0a1.887 1.887 0 1 0-1.888-1.886c0 1.042.845 1.886 1.888 1.886zM1.888 47.96a1.887 1.887 0 1 0 0-3.771 1.887 1.887 0 1 0 0 3.772zm12.321 0a1.887 1.887 0 1 0-1.889-1.885c0 1.041.846 1.886 1.889 1.886zm12.32 0a1.887 1.887 0 1 0 0-3.771 1.887 1.887 0 1 0 0 3.772zm12.321 0a1.887 1.887 0 1 0 0-3.771 1.887 1.887 0 1 0 0 3.772zM1.888 58.64A1.887 1.887 0 1 0 0 56.752c0 1.042.845 1.886 1.888 1.886zm12.321 0a1.887 1.887 0 1 0-1.889-1.887c0 1.042.846 1.886 1.889 1.886zm12.32 0a1.887 1.887 0 1 0-1.888-1.887c0 1.042.845 1.886 1.888 1.886zm12.321 0a1.887 1.887 0 1 0-1.89-1.887c0 1.042.846 1.886 1.89 1.886zM1.888 69.322A1.887 1.887 0 1 0 0 67.436c0 1.041.845 1.886 1.888 1.886zm12.321 0a1.887 1.887 0 1 0-1.889-1.886c0 1.041.846 1.886 1.889 1.886zm12.32 0a1.887 1.887 0 1 0-1.888-1.886c0 1.041.845 1.886 1.888 1.886zm12.321 0a1.887 1.887 0 1 0-1.89-1.886c0 1.041.846 1.886 1.89 1.886zM1.888 80A1.887 1.887 0 1 0 0 78.114C0 79.156.845 80 1.888 80zm12.321 0a1.887 1.887 0 1 0-1.889-1.886c0 1.042.846 1.886 1.889 1.886zm12.32 0a1.887 1.887 0 1 0-1.888-1.886c0 1.042.845 1.886 1.888 1.886zm12.321 0a1.887 1.887 0 1 0-1.89-1.886c0 1.042.846 1.886 1.89 1.886zm12.3-32.04a1.887 1.887 0 1 0-1.888-1.885c0 1.041.845 1.886 1.888 1.886zm12.32 0a1.887 1.887 0 1 0 0-3.771 1.887 1.887 0 1 0 0 3.772zm12.32 0a1.887 1.887 0 1 0 0-3.771 1.887 1.887 0 1 0 0 3.772zm12.321 0a1.887 1.887 0 1 0-1.888-1.885c0 1.041.845 1.886 1.888 1.886zM51.15 58.64a1.887 1.887 0 1 0-1.888-1.887c0 1.042.845 1.886 1.888 1.886zm12.32 0a1.887 1.887 0 1 0-1.888-1.887c0 1.042.846 1.886 1.888 1.886zm12.32 0a1.887 1.887 0 1 0-1.888-1.887c0 1.042.846 1.886 1.889 1.886zm12.321 0a1.887 1.887 0 1 0-1.888-1.887c0 1.042.845 1.886 1.888 1.886zM51.15 69.322a1.887 1.887 0 1 0-1.888-1.886c0 1.041.845 1.886 1.888 1.886zm12.32 0a1.887 1.887 0 1 0-1.888-1.886c0 1.041.846 1.886 1.888 1.886zm12.32 0a1.887 1.887 0 1 0-1.888-1.886c0 1.041.846 1.886 1.889 1.886zm12.321 0a1.887 1.887 0 1 0-1.888-1.886c0 1.041.845 1.886 1.888 1.886zM51.15 80a1.887 1.887 0 1 0-1.888-1.886c0 1.042.845 1.886 1.888 1.886zm12.32 0a1.887 1.887 0 1 0-1.888-1.886c0 1.042.846 1.886 1.888 1.886zm12.32 0a1.887 1.887 0 1 0-1.888-1.886c0 1.042.846 1.886 1.889 1.886zm12.321 0a1.887 1.887 0 1 0-1.888-1.886c0 1.042.845 1.886 1.888 1.886z" fill="#C82F35"/></svg>