<svg width="35" height="167" viewBox="0 0 35 167" fill="none" xmlns="http://www.w3.org/2000/svg"><path d="M1.888 3.772A1.887 1.887 0 1 0 0 1.886c0 1.042.845 1.886 1.888 1.886zm12.321 0a1.887 1.887 0 1 0-1.889-1.886c0 1.042.846 1.886 1.889 1.886zm12.32 0a1.887 1.887 0 1 0 0-3.772 1.887 1.887 0 0 0 0 3.772zM1.888 14.45A1.887 1.887 0 1 0 0 12.564c0 1.042.845 1.886 1.888 1.886zm12.321 0a1.887 1.887 0 1 0-1.889-1.886c0 1.042.846 1.886 1.889 1.886zm12.32 0a1.887 1.887 0 1 0-1.888-1.886c0 1.042.845 1.886 1.888 1.886zM1.888 25.133a1.887 1.887 0 0 0 0-3.772 1.887 1.887 0 1 0 0 3.772zm12.321 0a1.887 1.887 0 0 0 0-3.772 1.887 1.887 0 1 0 0 3.772zm12.32 0a1.887 1.887 0 1 0-1.888-1.886c0 1.041.845 1.886 1.888 1.886zM1.888 35.811A1.887 1.887 0 1 0 0 33.925c0 1.042.845 1.886 1.888 1.886zm12.321 0a1.887 1.887 0 1 0-1.889-1.886c0 1.042.846 1.886 1.889 1.886zm12.32 0a1.887 1.887 0 1 0-1.888-1.886c0 1.042.845 1.886 1.888 1.886zM1.888 47.96a1.887 1.887 0 1 0 0-3.771 1.887 1.887 0 1 0 0 3.772zm12.321 0a1.887 1.887 0 1 0-1.889-1.885c0 1.041.846 1.886 1.889 1.886zm12.32 0a1.887 1.887 0 1 0 0-3.771 1.887 1.887 0 1 0 0 3.772zM1.888 58.639A1.887 1.887 0 1 0 0 56.753c0 1.042.845 1.886 1.888 1.886zm12.321 0a1.887 1.887 0 1 0-1.889-1.886c0 1.042.846 1.886 1.889 1.886zm12.32 0a1.887 1.887 0 1 0-1.888-1.886c0 1.042.845 1.886 1.888 1.886zM1.888 69.322A1.887 1.887 0 1 0 0 67.436c0 1.041.845 1.886 1.888 1.886zm12.321 0a1.887 1.887 0 1 0-1.889-1.886c0 1.041.846 1.886 1.889 1.886zm12.32 0a1.887 1.887 0 1 0-1.888-1.886c0 1.041.845 1.886 1.888 1.886zM1.888 80A1.887 1.887 0 1 0 0 78.114C0 79.156.845 80 1.888 80zm12.321 0a1.887 1.887 0 1 0-1.889-1.886c0 1.042.846 1.886 1.889 1.886zm12.32 0a1.887 1.887 0 1 0-1.888-1.886c0 1.042.845 1.886 1.888 1.886zM1.888 90.772A1.887 1.887 0 1 0 0 88.886c0 1.042.845 1.886 1.888 1.886zm12.321 0a1.887 1.887 0 1 0-1.889-1.886c0 1.042.846 1.886 1.889 1.886zm12.32 0a1.887 1.887 0 1 0-1.888-1.886c0 1.042.845 1.886 1.888 1.886zM1.888 101.45a1.887 1.887 0 1 0 0-3.772 1.887 1.887 0 0 0 0 3.772zm12.321 0a1.887 1.887 0 1 0 0-3.772 1.887 1.887 0 0 0 0 3.772zm12.32 0a1.887 1.887 0 1 0 0-3.772 1.887 1.887 0 0 0 0 3.772zM1.888 112.133a1.887 1.887 0 1 0 0-3.772 1.887 1.887 0 1 0 0 3.772zm12.321 0a1.887 1.887 0 1 0 0-3.772 1.887 1.887 0 1 0 0 3.772zm12.32 0a1.887 1.887 0 1 0 0-3.772 1.887 1.887 0 1 0 0 3.772zM1.888 122.811a1.887 1.887 0 1 0 0-3.772 1.887 1.887 0 0 0 0 3.772zm12.321 0a1.887 1.887 0 1 0 0-3.772 1.887 1.887 0 0 0 0 3.772zm12.32 0a1.887 1.887 0 1 0 0-3.772 1.887 1.887 0 0 0 0 3.772zm-24.641 12.15a1.887 1.887 0 0 0 0-3.772 1.887 1.887 0 1 0 0 3.772zm12.321 0a1.887 1.887 0 0 0 0-3.772 1.887 1.887 0 1 0 0 3.772zm12.32 0a1.887 1.887 0 0 0 0-3.772 1.887 1.887 0 1 0 0 3.772zM1.888 145.639a1.887 1.887 0 1 0 0-3.772 1.887 1.887 0 1 0 0 3.772zm12.321 0a1.887 1.887 0 1 0 0-3.772 1.887 1.887 0 1 0 0 3.772zm12.32 0a1.887 1.887 0 1 0 0-3.772 1.887 1.887 0 1 0 0 3.772zM1.888 156.322a1.887 1.887 0 0 0 0-3.772 1.887 1.887 0 1 0 0 3.772zm12.321 0a1.887 1.887 0 0 0 0-3.772 1.887 1.887 0 1 0 0 3.772zm12.32 0a1.887 1.887 0 0 0 0-3.772 1.887 1.887 0 1 0 0 3.772zM1.888 167a1.887 1.887 0 1 0 0-3.772 1.887 1.887 0 1 0 0 3.772zm12.321 0a1.887 1.887 0 1 0 0-3.772 1.887 1.887 0 1 0 0 3.772zm12.32 0a1.887 1.887 0 1 0 0-3.772 1.887 1.887 0 1 0 0 3.772z" fill="#C82F35"/></svg>